<?xml version="1.0" encoding="UTF-8"?>
<svg id="Layer_1" xmlns="http://www.w3.org/2000/svg" xmlns:xlink="http://www.w3.org/1999/xlink" version="1.1" viewBox="0 0 24 24">
  <!-- Generator: Adobe Illustrator 30.2.1, SVG Export Plug-In . SVG Version: 2.1.1 Build 1)  -->
  <defs>
    <style>
      .st0 {
        fill: url(#linear-gradient);
      }

      .st1 {
        fill: none;
        stroke: #fff;
        stroke-linecap: round;
        stroke-miterlimit: 10;
      }
      @media (prefers-color-scheme: dark) {
        .st1 {
          stroke: #05070b;
        }
      }
    </style>
    <linearGradient id="linear-gradient" x1="1.66" y1="1.54" x2="23.99" y2="23.88" gradientTransform="translate(0 23.89) scale(1 -1)" gradientUnits="userSpaceOnUse">
      <stop offset=".22" stop-color="#538cca"/>
      <stop offset=".29" stop-color="#649ad1"/>
      <stop offset=".61" stop-color="#95c2e8"/>
      <stop offset=".7" stop-color="#b0d3ee"/>
      <stop offset=".86" stop-color="#dbedf8"/>
      <stop offset="1" stop-color="#ecf8fc"/>
    </linearGradient>
  </defs>
  <path class="st0" d="M4.68,16.45c-.26,1.2-3.42,3.54-3.76,3.89-.18.2-.58.9.13,1.38.35.24.96.21,1.15.03l2.8-2.8.35-.26,6.21.33c1.24,0,2.43-.49,3.31-1.37l5.37-5.39c2.39-2.39,2.34-6.29-.13-8.62-2.39-2.25-6.21-2.02-8.54.31l-5.21,5.21c-.88.88-1.21,2.03-1.37,3.3"/>
  <path class="st1" d="M15.18,14.21h-4.99"/>
  <path class="st1" d="M17.9,6.38L1.7,22.58"/>
</svg>
